<svg width="700" height="571" viewBox="0 0 700 571" fill="none" xmlns="http://www.w3.org/2000/svg">
<circle cx="461.5" cy="414.5" r="30.5" fill="#C2C2C2"/>
<circle cx="438.5" cy="195.5" r="30.5" fill="#C2C2C2"/>
<circle cx="331.5" cy="413.5" r="129.5" fill="#D6D6D6"/>
<circle cx="468" cy="343" r="80" fill="#D6D6D6"/>
<circle cx="160" cy="343" r="80" fill="#D6D6D6"/>
<circle cx="366" cy="205" r="80" fill="#D6D6D6"/>
<circle cx="439" cy="265" r="80" fill="#D6D6D6"/>
<circle cx="173" cy="449" r="80" fill="#D6D6D6"/>
<circle cx="439" cy="491" r="80" fill="#EBEBEB"/>
<circle cx="308" cy="183" r="80" fill="#EBEBEB"/>
<circle cx="195" cy="236" r="80" fill="#EBEBEB"/>
<circle cx="124" cy="299" r="80" fill="#EBEBEB"/>
<circle cx="535" cy="270" r="80" fill="#EBEBEB"/>
<circle cx="401" cy="240" r="80" fill="#EBEBEB"/>
<circle cx="454.5" cy="319.5" r="49.5" fill="#EBEBEB"/>
<circle cx="173.5" cy="439.5" r="49.5" fill="#EBEBEB"/>
<circle cx="244.5" cy="467.5" r="49.5" fill="#EBEBEB"/>
<circle cx="328.5" cy="460.5" r="49.5" fill="#EBEBEB"/>
<circle cx="335" cy="503" r="60" fill="#EBEBEB"/>
<circle cx="154.5" cy="387.5" r="30.5" fill="#EBEBEB"/>
<circle cx="222.5" cy="159.5" r="30.5" fill="#EBEBEB"/>
<circle cx="306" cy="332" r="149" fill="#EBEBEB"/>
<rect width="35" height="81.7872" transform="matrix(-0.707107 -0.707107 -0.707107 0.707107 630.519 161.294)" fill="#CCCCCC"/>
<path d="M584.531 142.733L587.059 156.031L623.076 162.945L639.711 149.688L601.615 127.285L584.531 142.733Z" fill="#CCCCCC"/>
<rect width="32" height="11" rx="5.5" transform="matrix(-0.965926 0.258819 0.258819 0.965926 625.396 163.876)" fill="#CCCCCC"/>
<rect width="32" height="11" rx="5.5" transform="matrix(-0.707107 0.707107 0.707107 0.707107 637.004 147.308)" fill="#CCCCCC"/>
<rect x="562.711" y="165" width="56" height="100" transform="rotate(45 562.711 165)" fill="#8F8F8F"/>
<rect x="104.77" y="119.579" width="35" height="81.7872" transform="rotate(-30 104.77 119.579)" fill="#CCCCCC"/>
<path d="M153.994 113.553L148.11 125.744L111.531 123.101L98.8934 105.989L141.49 94.2095L153.994 113.553Z" fill="#CCCCCC"/>
<rect x="109.049" y="123.399" width="32" height="11" rx="5.5" transform="rotate(30 109.049 123.399)" fill="#CCCCCC"/>
<rect x="102.125" y="104.391" width="32" height="11" rx="5.5" transform="rotate(60 102.125 104.391)" fill="#CCCCCC"/>
<path d="M126.939 70.7589C128.573 69.2721 131.103 69.3915 132.589 71.0255L140.665 79.9012C142.152 81.5352 142.033 84.0651 140.399 85.5518L131.062 94.0476C129.08 95.8509 125.92 95.2338 124.762 92.8173L119.349 81.5188C118.586 79.9258 118.958 78.0207 120.264 76.8319L126.939 70.7589Z" fill="#FF0033"/>
<path d="M175.169 68.7871C178.142 72.055 177.903 77.1147 174.636 80.0882L157.579 95.6079C155.742 97.2793 153.233 98.0028 150.788 97.566L142.397 96.0668C139.952 95.63 137.443 96.3535 135.606 98.0249L108.583 122.613C105.773 125.169 101.553 125.397 98.4841 123.159L73.1481 104.678C72.1255 103.932 70.9402 103.439 69.6903 103.24L55.3929 100.965C53.5989 100.679 51.9553 99.7912 50.7327 98.4476L35.1237 81.2927C32.1502 78.0248 32.3889 72.9651 35.6569 69.9916L106.663 5.38397C109.931 2.41049 114.991 2.64921 117.964 5.91717L175.169 68.7871ZM124.18 69.213C121.95 66.762 118.155 66.583 115.704 68.8131L89.0772 93.0409C86.6262 95.271 86.4472 99.0658 88.6773 101.517L96.7532 110.393C98.9834 112.844 102.778 113.023 105.229 110.792L131.856 86.5646C134.307 84.3345 134.486 80.5397 132.256 78.0887L124.18 69.213Z" fill="#525252"/>
<path d="M39.6055 75.9275C41.2176 78.0174 45.284 83.5779 45.4852 86.7369C45.6092 88.6838 44.9583 90.3315 44.4311 91.3216C44.1406 91.867 43.4273 91.9046 43.0114 91.4475L33.7111 81.2261C33.3394 80.8176 33.3692 80.1851 33.7777 79.8134L38.1751 75.8123C38.5992 75.4267 39.2554 75.4736 39.6055 75.9275ZM176.515 70.2664C178.745 72.7173 178.566 76.5121 176.115 78.7422L156.884 96.2401L143.724 81.7766C142.669 80.6172 142.109 79.0905 142.165 77.5241L142.539 67.0409C142.595 65.4745 142.036 63.9478 140.981 62.7884L120.05 39.785C119.407 39.0783 118.941 38.2282 118.693 37.3056L115.334 24.8191C115.086 23.8965 114.622 23.0464 113.979 22.3397L112.741 20.9789C111.022 19.0897 108.096 18.9517 106.207 20.6707L105.715 21.1189C104.097 22.5904 103.979 25.0942 105.451 26.7115C106.922 28.3288 106.804 30.8332 105.187 32.3049L104.88 32.5848C103.093 34.2109 100.326 34.0802 98.6994 32.2932L88.9114 21.5359L108.142 4.03798C110.593 1.80794 114.388 1.98694 116.618 4.43788L176.515 70.2664Z" fill="#A3A3A3"/>
<rect x="91.2031" y="32.9702" width="16" height="64" rx="8" transform="rotate(47.7013 91.2031 32.9702)" fill="#FF0033"/>
<rect x="89.7246" y="34.3164" width="12" height="60" rx="6" transform="rotate(47.7013 89.7246 34.3164)" fill="white"/>
<rect x="173.156" y="81.4341" width="6" height="8" transform="rotate(47.7013 173.156 81.4341)" fill="#666666"/>
<rect x="183.111" y="80.4883" width="8" height="24" rx="2" transform="rotate(47.7013 183.111 80.4883)" fill="#FF0033"/>
<rect x="102.165" y="25.7007" width="5.5" height="5.5" rx="2.75" transform="rotate(47.7013 102.165 25.7007)" fill="#2A2A2A"/>
<rect x="147.256" y="75.2568" width="5.5" height="5.5" rx="2.75" transform="rotate(47.7013 147.256 75.2568)" fill="#2A2A2A"/>
<rect x="96.5469" y="94.9106" width="24" height="11" rx="5.5" transform="rotate(60 96.5469 94.9106)" fill="#CCCCCC"/>
<rect x="102.073" y="82.4824" width="32" height="11" rx="5.5" transform="rotate(60 102.073 82.4824)" fill="#CCCCCC"/>
<rect x="111.6" y="76.9824" width="32" height="11" rx="5.5" transform="rotate(60 111.6 76.9824)" fill="#CCCCCC"/>
<rect x="121.125" y="71.4824" width="32" height="11" rx="5.5" transform="rotate(60 121.125 71.4824)" fill="#CCCCCC"/>
<rect x="147.481" y="84.3892" width="32" height="11" rx="5.5" transform="rotate(75 147.481 84.3892)" fill="#CCCCCC"/>
<rect x="117.156" y="85.3564" width="32" height="11" rx="5.5" fill="#CCCCCC"/>
<rect x="116" y="161" width="56" height="100" transform="rotate(-30 116 161)" fill="#8F8F8F"/>
<circle cx="214" cy="293" r="80" fill="#EBEBEB"/>
<circle cx="458" cy="293" r="80" fill="#EBEBEB"/>
<rect x="155.385" y="336.831" width="35" height="81.7872" transform="rotate(-60 155.385 336.831)" fill="#B8B8B8"/>
<rect x="174.778" y="285" width="32" height="11" rx="5.5" transform="rotate(45 174.778 285)" fill="#B8B8B8"/>
<path d="M195 307L196 320.5L163 336.5L143.5 328L174.5 296.5L195 307Z" fill="#B8B8B8"/>
<rect x="161" y="338" width="32" height="11" rx="5.5" fill="#B8B8B8"/>
<rect x="145.5" y="325" width="32" height="11" rx="5.5" transform="rotate(30 145.5 325)" fill="#B8B8B8"/>
<rect x="181" y="364.498" width="56" height="100" transform="rotate(-60 181 364.498)" fill="#7A7A7A"/>
<path d="M113.268 325.24L112.426 316.785L103.608 317.69L102.73 308.869L93.9123 309.774L93.0342 300.953L84.216 301.858L83.338 293.037L74.5198 293.941L73.6418 285.12L64.8239 286.026L63.9464 277.204L63.8248 277.217L63.8129 277.096L54.9955 278L54.1175 269.179L45.2993 270.084L44.4212 261.263L35.6025 262.168L34.7258 253.347L25.9071 254.252L25.0296 245.43L16.2109 246.336L15.4482 238.668L30 213.464L140.851 277.464L113.268 325.24ZM34.9282 220.928C33.015 219.823 30.5687 220.479 29.4641 222.392C28.3595 224.305 29.015 226.752 30.9282 227.856C32.8414 228.961 35.2877 228.305 36.3923 226.392C37.4969 224.479 36.8414 222.033 34.9282 220.928Z" fill="#A3A3A3"/>
<path d="M154.688 345.497C152.479 349.324 147.586 350.635 143.76 348.426L116.423 332.643C114.034 331.263 112.525 328.751 112.428 325.994L111.343 295.006C111.291 293.507 111.66 292.024 112.41 290.726L123.263 271.928C125.472 268.102 130.365 266.791 134.191 269L175.76 293C179.586 295.209 180.897 300.102 178.688 303.928L154.688 345.497ZM148.243 288.66C144.417 286.451 139.524 287.762 137.315 291.588L132.26 300.345C131.639 301.421 131.277 302.626 131.202 303.866L130.272 319.366C130.09 322.391 131.633 325.258 134.257 326.773L142.1 331.301C145.926 333.51 150.819 332.199 153.028 328.373L165.028 307.588C167.237 303.762 165.926 298.869 162.1 296.66L148.243 288.66Z" fill="#525252"/>
<rect x="135.928" y="319.579" width="24" height="11" rx="5.5" transform="rotate(30 135.928 319.579)" fill="#B8B8B8"/>
<rect x="134.5" y="306.053" width="32" height="11" rx="5.5" transform="rotate(30 134.5 306.053)" fill="#B8B8B8"/>
<rect x="140" y="296.526" width="32" height="11" rx="5.5" transform="rotate(30 140 296.526)" fill="#B8B8B8"/>
<rect x="145.5" y="287" width="32" height="11" rx="5.5" transform="rotate(30 145.5 287)" fill="#B8B8B8"/>
<rect x="149" y="301" width="32" height="11" rx="5.5" transform="rotate(-30 149 301)" fill="#B8B8B8"/>
<circle cx="305.5" cy="401.5" r="49.5" fill="#EBEBEB"/>
<rect x="132.89" y="275.205" width="26.4283" height="5.399" rx="2.6995" transform="rotate(120 132.89 275.205)" fill="#A3A3A3"/>
<rect x="551.305" y="83.811" width="20" height="56" transform="rotate(-45 551.305 83.811)" fill="#A3A3A3"/>
<rect x="588.074" y="123.409" width="24" height="96" rx="4" transform="rotate(-45 588.074 123.409)" fill="#525252"/>
<path d="M549.537 84.8717L531.859 67.194C532.706 71.045 528.961 75.8894 524.788 74.972L541.853 92.0373C541.663 88.1154 545.803 84.6909 549.537 84.8717Z" fill="#525252"/>
<rect x="511" y="87.3467" width="20" height="26" rx="4" transform="rotate(-45 511 87.3467)" fill="#666666"/>
<path d="M558.043 40.3034C567.6 30.7471 583.094 30.7471 592.65 40.3034C593.247 40.9007 593.247 41.8689 592.65 42.4662C592.65 42.4662 592.321 42.7949 591.61 42.799C590.899 42.8032 589.89 41.6891 589.489 41.3848C583.428 36.7825 573.299 42.0181 568.659 46.6577C563.292 52.0252 561.194 58.4865 565.094 64.3658C565.628 65.1717 566.154 66.427 566.154 67.5478C566.154 68.6686 565.447 69.6691 565.447 69.6691L551.305 83.8112C549.743 85.3733 547.21 85.3733 545.648 83.8112L532.754 70.9169C531.284 69.4467 531.284 67.0631 532.754 65.5929L558.043 40.3034Z" fill="#666666"/>
<rect width="32" height="11" rx="5.5" transform="matrix(-0.5 0.866025 0.866025 0.5 598.371 116.248)" fill="#CCCCCC"/>
<rect width="24" height="11" rx="5.5" transform="matrix(-0.707107 0.707107 0.707107 0.707107 644.847 139.594)" fill="#CCCCCC"/>
<rect width="32" height="11" rx="5.5" transform="matrix(-0.707107 0.707107 0.707107 0.707107 642.726 126.159)" fill="#CCCCCC"/>
<rect width="32" height="11" rx="5.5" transform="matrix(-0.707107 0.707107 0.707107 0.707107 634.947 118.38)" fill="#CCCCCC"/>
<rect width="32" height="11" rx="5.5" transform="matrix(-0.707107 0.707107 0.707107 0.707107 627.169 110.602)" fill="#CCCCCC"/>
<rect width="32" height="11" rx="5.5" transform="matrix(-0.965926 -0.258819 -0.258819 0.965926 627.412 125.031)" fill="#CCCCCC"/>
<circle cx="308" cy="245" r="80" fill="#EBEBEB"/>
<circle cx="209.5" cy="467.5" r="49.5" fill="#EBEBEB"/>
<circle cx="283.5" cy="190.5" r="30.5" fill="#EBEBEB"/>
<circle cx="445.5" cy="383.5" r="49.5" fill="#EBEBEB"/>
</svg>
