<?xml version="1.0" encoding="utf-8"?>
<!-- Generator: Adobe Illustrator 26.5.0, SVG Export Plug-In . SVG Version: 6.00 Build 0)  -->
<svg version="1.1" id="Слой_1" xmlns="http://www.w3.org/2000/svg" xmlns:xlink="http://www.w3.org/1999/xlink" x="0px" y="0px"
	 viewBox="0 0 1000 1000" style="enable-background:new 0 0 1000 1000;" xml:space="preserve">
<style type="text/css">
	.st0{fill:#FFFFFF;}
	.st1{fill:#FF0033;}
</style>
<path class="st0" d="M813.7,995.1H186.3C86.1,995.1,4.9,913.9,4.9,813.7V186.3C4.9,86.1,86.1,4.9,186.3,4.9h627.4
	c100.2,0,181.4,81.2,181.4,181.4v627.4C995.1,913.9,913.9,995.1,813.7,995.1z"/>
<path class="st1" d="M560.9,306v175c-24-13.9-51.9-21.9-81.7-21.9c-29.8,0-57.7,8-81.7,21.9c-13.7,8-26.1,17.8-37,29.2
	c-8.8,9.3-16.5,19.5-22.9,30.6c-7.3,12.7-13,26.4-16.7,40.9c-3.4,13-5.1,26.7-5.1,40.8c0,29.8,8,57.7,21.9,81.7
	c14.4,24.8,35,45.5,59.9,59.9c24,13.9,52,21.9,81.7,21.9c29.8,0,57.7-8,81.7-21.9v89.6c-25.6,9-53.1,14-81.7,14s-56.2-4.9-81.7-14
	c-30.5-10.8-58.1-27.4-81.7-48.5c-6.8-6.1-13.2-12.5-19.3-19.3c-21.1-23.6-37.7-51.3-48.5-81.7c-9-25.6-14-53.1-14-81.7
	c0-28.7,4.9-56.2,14-81.7c1.2-3.5,2.5-6.9,3.9-10.3c10.7-26.4,25.9-50.6,44.6-71.4c6.1-6.8,12.5-13.2,19.3-19.3
	c13.6-12.2,28.6-22.9,44.8-31.8c11.8-6.5,24.1-12.1,37-16.7c25.6-9,53.1-14,81.7-14V214h-81.7v-81.7h245.2V214h-81.7v81.7"/>
<path class="st1" d="M456.9,601.7L456.9,601.7c0-28.7,23.3-52,52-52l0,0c28.7,0,52,23.3,52,52l0,0c0,28.7-23.3,52-52,52l0,0
	C480.1,653.7,456.9,630.5,456.9,601.7z"/>
</svg>
